<?xml version="1.0" encoding="utf-8"?>
<!-- Generator: Adobe Illustrator 22.1.0, SVG Export Plug-In . SVG Version: 6.00 Build 0)  -->
<svg version="1.1" id="Layer_1" xmlns="http://www.w3.org/2000/svg" xmlns:xlink="http://www.w3.org/1999/xlink" x="0px" y="0px"
	 viewBox="0 0 306.7 66.9" style="enable-background:new 0 0 306.7 66.9;" xml:space="preserve">
<style type="text/css">
	.st0{fill:#FFFFFF;}
</style>
<g>
	<g>
		<g>
			<g>
				<path class="st0" d="M130.2,21.4c-3.3-0.7-4.7-1-4.7-2c0-0.9,0.8-1.8,2.9-1.8c1.7,0,3.2,0.7,3.9,2c0.2,0.3,0.5,0.4,0.8,0.2
					l4.3-2.4c0.2-0.1,0.3-0.2,0.3-0.4c0-0.2,0-0.4-0.1-0.5c-1.9-2.9-4.9-4.3-9.2-4.3l-0.2,0c-2.9,0-5.5,0.9-7.3,2.7
					c-1.3,1.3-2,3-2,4.7c0,5,4.2,6.4,8.4,7.2l0.3,0.1c2.5,0.5,4.5,0.8,4.5,1.9c0,1-0.9,2-3.1,2c-2.1,0-3.7-0.9-4.5-2.5
					c-0.1-0.2-0.2-0.3-0.4-0.3c-0.2,0-0.3,0-0.5,0.1l-4.7,2.6c-0.1,0.1-0.3,0.2-0.3,0.4c0,0.2,0,0.3,0.1,0.5c1.9,3.4,5.2,5,10.1,5
					l0.2,0c3.8,0,6.1-1.5,7.4-2.7c1.4-1.4,2.3-3.3,2.3-5.1C138.6,23.7,134.5,22.3,130.2,21.4"/>
				<path class="st0" d="M151.5,21.4c-3.3-0.7-4.7-1-4.7-2c0-0.9,0.8-1.8,2.9-1.8c1.7,0,3.2,0.7,3.9,2c0.2,0.3,0.5,0.4,0.8,0.2
					l4.3-2.4c0.2-0.1,0.3-0.2,0.3-0.4c0-0.2,0-0.4-0.1-0.5c-1.9-2.9-4.9-4.3-9.2-4.3l-0.2,0c-2.9,0-5.5,0.9-7.3,2.7
					c-1.3,1.3-2,3-2,4.7c0,5,4.2,6.4,8.4,7.2l0.3,0.1c2.5,0.5,4.5,0.8,4.5,1.9c0,1-0.9,2-3.1,2c-2.1,0-3.7-0.9-4.5-2.5
					c-0.1-0.2-0.2-0.3-0.4-0.3c-0.2,0-0.3,0-0.5,0.1l-4.7,2.6c-0.1,0.1-0.3,0.2-0.3,0.4c0,0.2,0,0.3,0.1,0.5c1.9,3.4,5.2,5,10.1,5
					l0.2,0c3.8,0,6.1-1.5,7.4-2.7c1.4-1.4,2.3-3.3,2.3-5.1C160,23.7,155.9,22.3,151.5,21.4"/>
				<path class="st0" d="M237.5,25.6v-6.8c0-0.3,0.2-0.5,0.5-0.5h3.9c0.3,0,0.6-0.3,0.6-0.6v-4.4c0-0.3-0.3-0.6-0.6-0.6H238
					c-0.3,0-0.5-0.2-0.5-0.5v-7c0-0.5-0.5-0.7-0.9-0.5l-5.4,3c-0.2,0.1-0.3,0.3-0.3,0.5v4c0,0.3-0.2,0.5-0.5,0.5H228
					c-0.3,0-0.6,0.3-0.6,0.6v4.4c0,0.3,0.3,0.6,0.6,0.6h2.4c0.3,0,0.5,0.2,0.5,0.5l0,8.3c0,4.9,4,8.8,8.8,8.8c0.8,0,1.6,0.1,2.4-0.1
					c0.2,0,0.4-0.3,0.4-0.5v-5.4c0-0.2-0.2-0.4-0.4-0.3c-0.3,0.1-0.7,0.2-1,0.2c-1.6,0-3-1.1-3.4-2.6
					C237.6,27,237.5,26.4,237.5,25.6"/>
				<path class="st0" d="M251.8,24.5V13.3c0-0.3-0.3-0.6-0.6-0.6h-5.5c-0.3,0-0.6,0.3-0.6,0.6v11.8c0,3.3,1,6.1,2.8,8.1
					c1.8,2,4.4,3.1,7.4,3.1c2.5,0,4.6-0.6,6.7-2.2l0.1-0.1v1.2c0,0.3,0.3,0.6,0.6,0.6h5.5c0.3,0,0.6-0.3,0.6-0.6V13.3
					c0-0.3-0.3-0.6-0.6-0.6h-5.5c-0.3,0-0.6,0.3-0.6,0.6v11.1c0,3.7-1.9,5.9-5.2,5.9C253.7,30.3,251.8,28.2,251.8,24.5"/>
				<path class="st0" d="M207.7,24.5V13.3c0-0.3-0.3-0.6-0.6-0.6h-5.5c-0.3,0-0.6,0.3-0.6,0.6v11.8c0,3.3,1,6.1,2.8,8.1
					c1.8,2,4.4,3.1,7.4,3.1c2.5,0,4.6-0.6,6.7-2.2L218,34v1.3c0,0.3,0.2,0.5,0.5,0.5h5.7c0.3,0,0.5-0.2,0.5-0.5V13.3
					c0-0.3-0.3-0.6-0.6-0.6h-5.5c-0.3,0-0.6,0.3-0.6,0.6v11.1c0,3.7-1.9,5.9-5.2,5.9C209.6,30.3,207.7,28.2,207.7,24.5"/>
				<path class="st0" d="M306.3,0h-5.6c-0.3,0-0.6,0.3-0.6,0.6v34.8c0,0.3,0.2,0.5,0.5,0.5h5.7c0.3,0,0.5-0.2,0.5-0.5V0.5
					C306.7,0.2,306.5,0,306.3,0"/>
				<path class="st0" d="M103.4,18c3.4,0,5.8,2.6,5.8,6.2c0,3.7-2.5,6.4-5.8,6.4c-3.4,0-5.9-2.7-5.9-6.4C97.4,20.5,99.9,18,103.4,18
					 M90.9,24.2c0,7.4,5,12.3,12.3,12.1c2.2-0.1,4.3-0.9,6-2.3v1.2c0,0.3,0.3,0.6,0.6,0.6h5.5c0.3,0,0.6-0.3,0.6-0.6V13.3
					c0-0.3-0.3-0.6-0.6-0.6h-5.5c-0.3,0-0.6,0.3-0.6,0.6v1.2l-0.1-0.1c-1.9-1.4-4-2.1-6.3-2.1C95.6,12.3,90.9,17.1,90.9,24.2"/>
				<path class="st0" d="M284,18c3.4,0,5.8,2.6,5.8,6.2c0,3.7-2.5,6.4-5.8,6.4c-3.4,0-5.9-2.7-5.9-6.4C278.1,20.5,280.5,18,284,18
					 M271.5,24.2c0,7.4,5,12.3,12.3,12.1c2.2-0.1,4.3-0.9,6-2.3v1.3c0,0.3,0.2,0.5,0.5,0.5h5.7c0.3,0,0.5-0.2,0.5-0.5V13.2
					c0-0.3-0.2-0.5-0.5-0.5h-5.7c-0.3,0-0.5,0.2-0.5,0.5v1.3l-0.1-0.1c-1.9-1.4-4-2.1-6.3-2.1C276.3,12.3,271.5,17.1,271.5,24.2"/>
				<path class="st0" d="M82.7,0.3l-12,17.8l-12-17.8C58.6,0.1,58.4,0,58.1,0H54c-0.4,0-0.7,0.3-0.7,0.7v34.5c0,0.4,0.3,0.7,0.7,0.7
					h5.3c0.4,0,0.7-0.3,0.7-0.7V14.1l10.2,15.1c0.3,0.4,0.9,0.4,1.1,0l10.2-15.1v21.1c0,0.4,0.3,0.7,0.7,0.7h5.3
					c0.4,0,0.7-0.3,0.7-0.7V0.7c0-0.4-0.3-0.7-0.7-0.7h-4.1C83.1,0,82.9,0.1,82.7,0.3"/>
				<path class="st0" d="M192,0.3l-12,17.8L168,0.3c-0.1-0.2-0.3-0.3-0.6-0.3h-4.1c-0.4,0-0.7,0.3-0.7,0.7v34.5
					c0,0.4,0.3,0.7,0.7,0.7h5.3c0.4,0,0.7-0.3,0.7-0.7V14.1l10.2,15.1c0.3,0.4,0.9,0.4,1.1,0l10.2-15.1v21.1c0,0.4,0.3,0.7,0.7,0.7
					h5.3c0.4,0,0.7-0.3,0.7-0.7V0.7c0-0.4-0.3-0.7-0.7-0.7h-4.1C192.4,0,192.1,0.1,192,0.3"/>
				<path class="st0" d="M44.7,31c0-3-2.4-5.4-5.4-5.4c-3,0-5.4,2.4-5.4,5.4c0,3,2.4,5.4,5.4,5.4C42.3,36.4,44.7,34,44.7,31"/>
				<path class="st0" d="M27.8,31c0-3-2.4-5.4-5.4-5.4S17,28,17,31c0,3,2.4,5.4,5.4,5.4S27.8,34,27.8,31"/>
				<path class="st0" d="M10.8,31c0-3-2.4-5.4-5.4-5.4C2.4,25.5,0,28,0,31c0,3,2.4,5.4,5.4,5.4C8.4,36.4,10.8,34,10.8,31"/>
				<path class="st0" d="M36.3,17.7c0-3-2.4-5.4-5.4-5.4s-5.4,2.4-5.4,5.4c0,3,2.4,5.4,5.4,5.4S36.3,20.7,36.3,17.7"/>
				<path class="st0" d="M19.3,17.7c0-3-2.4-5.4-5.4-5.4s-5.4,2.4-5.4,5.4c0,3,2.4,5.4,5.4,5.4S19.3,20.7,19.3,17.7"/>
			</g>
		</g>
	</g>
</g>
<g>
	<path class="st0" d="M53.8,66.7c-0.3,0-0.5-0.2-0.5-0.5v-15c0-0.3,0.2-0.5,0.5-0.5h8c0.3,0,0.5,0.2,0.5,0.5v1.2
		c0,0.3-0.2,0.5-0.5,0.5h-6.2v4.6h6.2c0.3,0,0.5,0.2,0.5,0.5v1.2c0,0.3-0.2,0.5-0.5,0.5h-6.2v6.4c0,0.3-0.2,0.5-0.5,0.5H53.8z"/>
	<path class="st0" d="M64.5,52.4c0-0.9,0.7-1.6,1.6-1.6c0.9,0,1.6,0.7,1.6,1.6c0,0.9-0.7,1.6-1.6,1.6C65.1,54,64.5,53.3,64.5,52.4z
		 M65.4,66.7c-0.3,0-0.5-0.2-0.5-0.5v-9.9c0-0.3,0.2-0.5,0.5-0.5h1.3c0.3,0,0.5,0.2,0.5,0.5v9.9c0,0.3-0.2,0.5-0.5,0.5H65.4z"/>
	<path class="st0" d="M75.5,66.9c-3.5,0-5.8-2.5-5.8-5.7c0-3.2,2.5-5.8,5.7-5.8c3.3,0,5.7,2.4,5.7,5.6v0.4c0,0.3-0.2,0.5-0.5,0.5
		h-8.6c0.3,1.7,1.6,2.8,3.5,2.8c1.3,0,2.3-0.6,2.9-1.5c0.2-0.3,0.5-0.4,0.8-0.2l1,0.5c0.2,0.1,0.3,0.5,0.2,0.7
		C79.3,65.9,77.7,66.9,75.5,66.9z M75.4,57.5c-1.6,0-2.9,1-3.3,2.5h6.6C78.3,58.4,77.1,57.5,75.4,57.5z"/>
	<path class="st0" d="M84.1,66.7c-0.3,0-0.5-0.2-0.5-0.5v-15c0-0.3,0.2-0.5,0.5-0.5h1.3c0.3,0,0.5,0.2,0.5,0.5v15
		c0,0.3-0.2,0.5-0.5,0.5H84.1z"/>
	<path class="st0" d="M93.9,66.9c-2.8,0-5.5-2.2-5.5-5.7c0-3.5,2.6-5.7,5.5-5.7c1.5,0,2.8,0.6,3.7,1.7v-6c0-0.3,0.2-0.5,0.5-0.5h1.3
		c0.3,0,0.5,0.2,0.5,0.5v15c0,0.3-0.2,0.5-0.5,0.5h-1.3c-0.3,0-0.5-0.2-0.5-0.5v-1C96.7,66.2,95.3,66.9,93.9,66.9z M94.2,64.7
		c2,0,3.5-1.6,3.5-3.6c0-2-1.5-3.6-3.5-3.6c-2,0-3.5,1.6-3.5,3.6C90.7,63.2,92.3,64.7,94.2,64.7z"/>
	<path class="st0" d="M115.5,66.9c-4.8,0-8.3-3.7-8.3-8.3c0-4.7,3.7-8.3,8.3-8.3c2.8,0,5.3,1.4,6.8,3.6c0.2,0.2,0.1,0.6-0.2,0.7
		l-1.2,0.7c-0.3,0.2-0.6,0.1-0.7-0.2c-1-1.6-2.7-2.6-4.8-2.6c-3.3,0-5.9,2.6-5.9,5.9c0,3.3,2.5,5.9,5.8,5.9c2.3,0,4-1.1,5-2.8
		c0.2-0.3,0.5-0.4,0.7-0.2l1.2,0.6c0.2,0.1,0.4,0.5,0.2,0.7C121.1,65.3,118.6,66.9,115.5,66.9z"/>
	<path class="st0" d="M130,66.9c-2.8,0-5.5-2.2-5.5-5.7c0-3.5,2.6-5.7,5.5-5.7c1.5,0,2.8,0.6,3.7,1.7v-0.9c0-0.3,0.2-0.5,0.5-0.5
		h1.3c0.3,0,0.5,0.2,0.5,0.5v9.9c0,0.3-0.2,0.5-0.5,0.5h-1.3c-0.3,0-0.5-0.2-0.5-0.5v-1C132.8,66.2,131.4,66.9,130,66.9z
		 M130.3,64.7c2,0,3.5-1.6,3.5-3.6c0-2-1.5-3.6-3.5-3.6c-2,0-3.5,1.6-3.5,3.6C126.8,63.2,128.4,64.7,130.3,64.7z"/>
	<path class="st0" d="M139.5,66.7c-0.3,0-0.5-0.2-0.5-0.5v-9.9c0-0.3,0.2-0.5,0.5-0.5h1.3c0.3,0,0.5,0.2,0.5,0.5v1.2
		c0.6-1.1,1.7-1.7,3.2-1.7h0.6c0.3,0,0.5,0.2,0.5,0.5v1.2c0,0.3-0.2,0.5-0.5,0.5h-0.9c-2,0-2.8,1-2.8,3.3v4.9c0,0.3-0.2,0.5-0.5,0.5
		H139.5z"/>
	<path class="st0" d="M152.9,66.9c-3.5,0-5.8-2.5-5.8-5.7c0-3.2,2.5-5.8,5.7-5.8c3.3,0,5.7,2.4,5.7,5.6v0.4c0,0.3-0.2,0.5-0.5,0.5
		h-8.6c0.3,1.7,1.6,2.8,3.5,2.8c1.3,0,2.3-0.6,2.9-1.5c0.2-0.3,0.5-0.4,0.8-0.2l1,0.5c0.2,0.1,0.3,0.5,0.2,0.7
		C156.8,65.9,155.2,66.9,152.9,66.9z M152.9,57.5c-1.6,0-2.9,1-3.3,2.5h6.6C155.8,58.4,154.5,57.5,152.9,57.5z"/>
	<path class="st0" d="M166.3,66.9c-3.5,0-5.8-2.5-5.8-5.7c0-3.2,2.5-5.8,5.7-5.8c3.3,0,5.7,2.4,5.7,5.6v0.4c0,0.3-0.2,0.5-0.5,0.5
		h-8.6c0.3,1.7,1.6,2.8,3.5,2.8c1.3,0,2.3-0.6,2.9-1.5c0.2-0.3,0.5-0.4,0.8-0.2l1,0.5c0.2,0.1,0.3,0.5,0.2,0.7
		C170.2,65.9,168.5,66.9,166.3,66.9z M166.2,57.5c-1.6,0-2.9,1-3.3,2.5h6.6C169.1,58.4,167.9,57.5,166.2,57.5z"/>
	<path class="st0" d="M174.9,66.7c-0.3,0-0.5-0.2-0.5-0.5v-9.9c0-0.3,0.2-0.5,0.5-0.5h1.3c0.3,0,0.5,0.2,0.5,0.5v1.2
		c0.6-1.1,1.7-1.7,3.2-1.7h0.5c0.3,0,0.5,0.2,0.5,0.5v1.2c0,0.3-0.2,0.5-0.5,0.5h-0.9c-2,0-2.8,1-2.8,3.3v4.9c0,0.3-0.2,0.5-0.5,0.5
		H174.9z"/>
	<path class="st0" d="M187.3,66.9c-2.2,0-3.7-0.7-4.6-2c-0.2-0.2-0.1-0.5,0.2-0.7l1.2-0.6c0.3-0.2,0.6-0.1,0.8,0.2
		c0.6,0.7,1.5,1.1,2.6,1.1c1.4,0,2.1-0.7,2.1-1.4c0-0.9-1.3-1.1-2.7-1.4c-1.9-0.4-3.9-1-3.9-3.3c0-1.7,1.7-3.3,4.3-3.3
		c1.9,0,3.2,0.6,4.2,1.7c0.2,0.2,0.1,0.5-0.1,0.7l-1,0.6c-0.3,0.2-0.6,0.1-0.8-0.1c-0.5-0.6-1.2-0.9-2.2-0.9c-1.3,0-1.9,0.6-1.9,1.3
		c0,0.8,0.9,1,2.6,1.3c1.8,0.4,3.9,1,3.9,3.3C191.9,65,190.4,66.9,187.3,66.9z"/>
</g>
</svg>
