<?xml version="1.0" encoding="utf-8"?>
<!-- Generator: Adobe Illustrator 26.2.1, SVG Export Plug-In . SVG Version: 6.00 Build 0)  -->
<svg version="1.1" id="Layer_1" xmlns="http://www.w3.org/2000/svg" xmlns:xlink="http://www.w3.org/1999/xlink" x="0px" y="0px"
	 viewBox="0 0 306.8 36.6" style="enable-background:new 0 0 306.8 36.6;" xml:space="preserve">
<style type="text/css">
	.st0{fill:#FFFFFF;}
</style>
<g>
	<g>
		<g>
			<g>
				<path class="st0" d="M130.2,21.4c-3.3-0.7-4.7-1-4.7-2c0-0.9,0.8-1.8,2.9-1.8c1.7,0,3.2,0.7,3.9,2c0.2,0.3,0.5,0.4,0.8,0.2
					l4.3-2.4c0.2-0.1,0.3-0.2,0.3-0.4c0-0.2,0-0.4-0.1-0.5c-1.9-2.9-4.9-4.3-9.2-4.3h-0.2c-2.9,0-5.5,0.9-7.3,2.7
					c-1.3,1.3-2,3-2,4.7c0,5,4.2,6.4,8.4,7.2l0.3,0.1c2.5,0.5,4.5,0.8,4.5,1.9c0,1-0.9,2-3.1,2c-2.1,0-3.7-0.9-4.5-2.5
					c-0.1-0.2-0.2-0.3-0.4-0.3c-0.2,0-0.3,0-0.5,0.1l-4.7,2.6c-0.1,0.1-0.3,0.2-0.3,0.4c0,0.2,0,0.3,0.1,0.5c1.9,3.4,5.2,5,10.1,5
					h0.2c3.8,0,6.1-1.5,7.4-2.7c1.4-1.4,2.3-3.3,2.3-5.1C138.6,23.7,134.5,22.3,130.2,21.4"/>
				<path class="st0" d="M151.5,21.4c-3.3-0.7-4.7-1-4.7-2c0-0.9,0.8-1.8,2.9-1.8c1.7,0,3.2,0.7,3.9,2c0.2,0.3,0.5,0.4,0.8,0.2
					l4.3-2.4c0.2-0.1,0.3-0.2,0.3-0.4c0-0.2,0-0.4-0.1-0.5c-1.9-2.9-4.9-4.3-9.2-4.3h-0.2c-2.9,0-5.5,0.9-7.3,2.7
					c-1.3,1.3-2,3-2,4.7c0,5,4.2,6.4,8.4,7.2l0.3,0.1c2.5,0.5,4.5,0.8,4.5,1.9c0,1-0.9,2-3.1,2c-2.1,0-3.7-0.9-4.5-2.5
					c-0.1-0.2-0.2-0.3-0.4-0.3s-0.3,0-0.5,0.1l-4.7,2.6c-0.1,0.1-0.3,0.2-0.3,0.4c0,0.2,0,0.3,0.1,0.5c1.9,3.4,5.2,5,10.1,5h0.2
					c3.8,0,6.1-1.5,7.4-2.7c1.4-1.4,2.3-3.3,2.3-5.1C160,23.7,155.9,22.3,151.5,21.4"/>
				<path class="st0" d="M237.5,25.6v-6.8c0-0.3,0.2-0.5,0.5-0.5h3.9c0.3,0,0.6-0.3,0.6-0.6v-4.4c0-0.3-0.3-0.6-0.6-0.6H238
					c-0.3,0-0.5-0.2-0.5-0.5v-7c0-0.5-0.5-0.7-0.9-0.5l-5.4,3c-0.2,0.1-0.3,0.3-0.3,0.5v4c0,0.3-0.2,0.5-0.5,0.5H228
					c-0.3,0-0.6,0.3-0.6,0.6v4.4c0,0.3,0.3,0.6,0.6,0.6h2.4c0.3,0,0.5,0.2,0.5,0.5v8.3c0,4.9,4,8.8,8.8,8.8c0.8,0,1.6,0.1,2.4-0.1
					c0.2,0,0.4-0.3,0.4-0.5v-5.4c0-0.2-0.2-0.4-0.4-0.3c-0.3,0.1-0.7,0.2-1,0.2c-1.6,0-3-1.1-3.4-2.6
					C237.6,27,237.5,26.4,237.5,25.6"/>
				<path class="st0" d="M251.8,24.5V13.3c0-0.3-0.3-0.6-0.6-0.6h-5.5c-0.3,0-0.6,0.3-0.6,0.6v11.8c0,3.3,1,6.1,2.8,8.1
					s4.4,3.1,7.4,3.1c2.5,0,4.6-0.6,6.7-2.2l0.1-0.1v1.2c0,0.3,0.3,0.6,0.6,0.6h5.5c0.3,0,0.6-0.3,0.6-0.6V13.3
					c0-0.3-0.3-0.6-0.6-0.6h-5.5c-0.3,0-0.6,0.3-0.6,0.6v11.1c0,3.7-1.9,5.9-5.2,5.9C253.7,30.3,251.8,28.2,251.8,24.5"/>
				<path class="st0" d="M207.7,24.5V13.3c0-0.3-0.3-0.6-0.6-0.6h-5.5c-0.3,0-0.6,0.3-0.6,0.6v11.8c0,3.3,1,6.1,2.8,8.1
					s4.4,3.1,7.4,3.1c2.5,0,4.6-0.6,6.7-2.2L218,34v1.3c0,0.3,0.2,0.5,0.5,0.5h5.7c0.3,0,0.5-0.2,0.5-0.5v-22c0-0.3-0.3-0.6-0.6-0.6
					h-5.5c-0.3,0-0.6,0.3-0.6,0.6v11.1c0,3.7-1.9,5.9-5.2,5.9C209.6,30.3,207.7,28.2,207.7,24.5"/>
				<path class="st0" d="M306.3,0h-5.6c-0.3,0-0.6,0.3-0.6,0.6v34.8c0,0.3,0.2,0.5,0.5,0.5h5.7c0.3,0,0.5-0.2,0.5-0.5V0.5
					C306.7,0.2,306.5,0,306.3,0"/>
				<path class="st0" d="M103.4,18c3.4,0,5.8,2.6,5.8,6.2c0,3.7-2.5,6.4-5.8,6.4c-3.4,0-5.9-2.7-5.9-6.4C97.4,20.5,99.9,18,103.4,18
					 M90.9,24.2c0,7.4,5,12.3,12.3,12.1c2.2-0.1,4.3-0.9,6-2.3v1.2c0,0.3,0.3,0.6,0.6,0.6h5.5c0.3,0,0.6-0.3,0.6-0.6V13.3
					c0-0.3-0.3-0.6-0.6-0.6h-5.5c-0.3,0-0.6,0.3-0.6,0.6v1.2l-0.1-0.1c-1.9-1.4-4-2.1-6.3-2.1C95.6,12.3,90.9,17.1,90.9,24.2"/>
				<path class="st0" d="M284,18c3.4,0,5.8,2.6,5.8,6.2c0,3.7-2.5,6.4-5.8,6.4c-3.4,0-5.9-2.7-5.9-6.4S280.5,18,284,18 M271.5,24.2
					c0,7.4,5,12.3,12.3,12.1c2.2-0.1,4.3-0.9,6-2.3v1.3c0,0.3,0.2,0.5,0.5,0.5h5.7c0.3,0,0.5-0.2,0.5-0.5V13.2
					c0-0.3-0.2-0.5-0.5-0.5h-5.7c-0.3,0-0.5,0.2-0.5,0.5v1.3l-0.1-0.1c-1.9-1.4-4-2.1-6.3-2.1C276.3,12.3,271.5,17.1,271.5,24.2"/>
				<path class="st0" d="M82.7,0.3l-12,17.8l-12-17.8C58.6,0.1,58.4,0,58.1,0H54c-0.4,0-0.7,0.3-0.7,0.7v34.5c0,0.4,0.3,0.7,0.7,0.7
					h5.3c0.4,0,0.7-0.3,0.7-0.7V14.1l10.2,15.1c0.3,0.4,0.9,0.4,1.1,0l10.2-15.1v21.1c0,0.4,0.3,0.7,0.7,0.7h5.3
					c0.4,0,0.7-0.3,0.7-0.7V0.7c0-0.4-0.3-0.7-0.7-0.7h-4.1C83.1,0,82.9,0.1,82.7,0.3"/>
				<path class="st0" d="M192,0.3l-12,17.8L168,0.3c-0.1-0.2-0.3-0.3-0.6-0.3h-4.1c-0.4,0-0.7,0.3-0.7,0.7v34.5
					c0,0.4,0.3,0.7,0.7,0.7h5.3c0.4,0,0.7-0.3,0.7-0.7V14.1l10.2,15.1c0.3,0.4,0.9,0.4,1.1,0l10.2-15.1v21.1c0,0.4,0.3,0.7,0.7,0.7
					h5.3c0.4,0,0.7-0.3,0.7-0.7V0.7c0-0.4-0.3-0.7-0.7-0.7h-4.1C192.4,0,192.1,0.1,192,0.3"/>
				<path class="st0" d="M44.7,31c0-3-2.4-5.4-5.4-5.4S33.9,28,33.9,31s2.4,5.4,5.4,5.4S44.7,34,44.7,31"/>
				<path class="st0" d="M27.8,31c0-3-2.4-5.4-5.4-5.4S17,28,17,31s2.4,5.4,5.4,5.4S27.8,34,27.8,31"/>
				<path class="st0" d="M10.8,31c0-3-2.4-5.4-5.4-5.4C2.4,25.5,0,28,0,31s2.4,5.4,5.4,5.4S10.8,34,10.8,31"/>
				<path class="st0" d="M36.3,17.7c0-3-2.4-5.4-5.4-5.4s-5.4,2.4-5.4,5.4s2.4,5.4,5.4,5.4S36.3,20.7,36.3,17.7"/>
				<path class="st0" d="M19.3,17.7c0-3-2.4-5.4-5.4-5.4s-5.4,2.4-5.4,5.4s2.4,5.4,5.4,5.4S19.3,20.7,19.3,17.7"/>
			</g>
		</g>
	</g>
</g>
</svg>
